<svg width="216" height="36" viewBox="0 0 216 36" fill="none" xmlns="http://www.w3.org/2000/svg">
<path fill-rule="evenodd" clip-rule="evenodd" d="M22.6218 13.157C21.4784 14.9997 20.5932 16.9237 19.9628 18.8674H25.224L26.8321 24.6054H12.75V24.5731H10.2524C10.6327 20.5322 11.9253 16.5153 14.2083 12.8298C21.9909 0.278772 38.3443 -3.70518 51.0005 3.75029C41.7548 -1.53162 29.1756 2.58677 22.6218 13.157V13.157Z" fill="#ED3237"/>
<path fill-rule="evenodd" clip-rule="evenodd" d="M45.8881 9.07998H34.105L32.497 14.8181H38.2632C36.6754 23.0006 31.3935 29.0982 21.0453 29.0982C8.36523 29.0982 0 21.7399 0 10.8097C0 25.7849 9.05135 35.8341 24.0272 35.8341C39.0025 35.8341 47.1133 23.9905 47.1133 9.0152L45.8881 9.07998V9.07998Z" fill="#131B5C"/>
<path fill-rule="evenodd" clip-rule="evenodd" d="M60.696 22.8492H66.418L63.7173 14.3195H63.6092L60.696 22.8492H60.696ZM58.1033 30.4074H54L61.2339 10.4312H66.3088L73.3265 30.4074H69.0071L67.4964 26.196H59.614L58.1033 30.4074V30.4074Z" fill="#131B5C"/>
<path fill-rule="evenodd" clip-rule="evenodd" d="M79.4821 13.7791V19.0701H83.0439C84.988 19.0701 85.9955 18.1359 86.0688 16.2626C85.9955 14.6078 84.988 13.7791 83.0439 13.7791H79.4821V13.7791ZM79.4821 22.4181V30.4074H75.1626V10.4312H83.6911C88.2279 10.5789 90.5299 12.3045 90.602 15.6153C90.5299 18.2055 89.1621 19.8254 86.4987 20.4739V20.5819C88.444 20.7969 89.6305 22.2728 90.0628 25.0083C90.0628 25.2245 90.0988 25.4406 90.1697 25.6568C90.3138 28.1028 90.674 29.6891 91.2505 30.4074H86.608C86.1744 28.6793 85.9235 26.8804 85.8526 25.0083C85.6353 23.2803 85.024 22.4181 84.0153 22.4181H79.4821V22.4181Z" fill="#131B5C"/>
<path fill-rule="evenodd" clip-rule="evenodd" d="M98.0531 10.4312V19.0701L104.747 10.4312H109.715L102.37 19.3931L110.362 30.4074H105.07L98.0531 20.2566V30.4074H93.7324V10.4312H98.0531Z" fill="#131B5C"/>
<path fill-rule="evenodd" clip-rule="evenodd" d="M124.075 27.0594H127.421C129.797 27.2047 130.946 26.3413 130.876 24.4692C130.946 22.597 129.797 21.6987 127.421 21.7696H124.075V27.0594ZM124.075 18.4228H127.421C129.219 18.4228 130.155 17.6652 130.228 16.1545C130.155 14.5729 129.219 13.7791 127.421 13.7791H124.075V18.4228ZM127.313 30.4074H119.754V10.4312H127.313C131.919 10.4312 134.33 12.1593 134.547 15.6153C134.474 17.7036 133.288 19.1422 130.983 19.9336V20.0416C133.792 20.8341 135.265 22.5634 135.411 25.2245C135.122 28.5352 132.422 30.2633 127.313 30.4074Z" fill="#131B5C"/>
<path fill-rule="evenodd" clip-rule="evenodd" d="M151.389 10.4312H155.709V22.9561C155.493 27.9227 152.615 30.477 147.072 30.6222C141.385 30.477 138.469 27.9227 138.325 22.9561V10.4312H142.645V21.3373C142.355 25.8021 143.832 27.9227 147.072 27.7078C150.166 27.9227 151.605 25.8021 151.389 21.3373V10.4312H151.389Z" fill="#131B5C"/>
<path fill-rule="evenodd" clip-rule="evenodd" d="M172.552 30.4074H159.704V10.4312H163.915V27.0594H172.552V30.4074Z" fill="#131B5C"/>
<path fill-rule="evenodd" clip-rule="evenodd" d="M183.889 13.1318C180.435 13.1318 178.743 15.5792 178.815 20.4739C178.743 25.3697 180.435 27.7798 183.889 27.7077C187.2 27.7077 188.856 25.2965 188.856 20.4739C188.856 15.5792 187.2 13.1318 183.889 13.1318ZM183.889 30.6221C177.628 30.4769 174.424 27.0977 174.28 20.4739C174.424 13.7082 177.628 10.2162 183.889 10C190.007 10.2162 193.175 13.7082 193.393 20.4739C193.175 27.0977 190.007 30.4769 183.889 30.6221Z" fill="#131B5C"/>
<path fill-rule="evenodd" clip-rule="evenodd" d="M205.376 27.7077C208.686 27.7077 210.342 25.2965 210.342 20.4739C210.344 15.5792 208.686 13.1318 205.376 13.1318C201.921 13.1318 200.228 15.5792 200.301 20.4739C200.228 25.3697 201.921 27.7798 205.376 27.7077ZM215.848 27.2754V30.4073H207.428C207.066 30.4073 206.742 30.4421 206.456 30.5142C206.24 30.5142 206.023 30.5142 205.809 30.5142C205.593 30.585 205.448 30.6221 205.376 30.6221C199.114 30.4769 195.91 27.0977 195.768 20.4739C195.91 13.7082 199.114 10.2162 205.376 10C211.493 10.2162 214.662 13.7082 214.877 20.4739C214.662 23.2105 213.69 25.5474 211.962 27.4917C212.106 27.4917 212.501 27.4555 213.149 27.3834C213.726 27.3834 214.157 27.3475 214.446 27.2754H215.848H215.848Z" fill="#131B5C"/>
</svg>
