<svg width="18" height="18" viewBox="0 0 18 18" fill="none" xmlns="http://www.w3.org/2000/svg">
<path d="M7.56794 10.4324C5.97714 8.84156 5.61794 7.25076 5.5369 6.6134C5.51426 6.43717 5.57491 6.26043 5.70099 6.13524L6.98834 4.84846C7.17771 4.6592 7.21132 4.36425 7.06938 4.13725L5.01966 0.954491C4.86263 0.703125 4.54019 0.612405 4.27512 0.745008L0.984606 2.29472C0.770256 2.40027 0.644177 2.62801 0.668514 2.8657C0.840928 4.50363 1.55501 8.53007 5.51191 12.4872C9.4688 16.4444 13.4947 17.1582 15.1335 17.3306C15.3711 17.355 15.5989 17.2289 15.7044 17.0145L17.2541 13.724C17.3863 13.4595 17.2961 13.138 17.0458 12.9806L13.8631 10.9315C13.6362 10.7894 13.3412 10.8228 13.1518 11.012L11.8651 12.2993C11.7399 12.4254 11.5631 12.486 11.3869 12.4634C10.7495 12.3824 9.15874 12.0232 7.56794 10.4324Z" fill="white"/>
<path d="M13.8851 9.57464C13.5677 9.57464 13.3104 9.31733 13.3104 8.99993C13.3077 6.62051 11.3794 4.69228 9.00001 4.68959C8.6826 4.68959 8.42529 4.43228 8.42529 4.11487C8.42529 3.79747 8.6826 3.54016 9.00001 3.54016C12.014 3.54349 14.4564 5.98596 14.4598 8.99993C14.4598 9.31733 14.2025 9.57464 13.8851 9.57464Z" fill="white"/>
<path d="M16.7586 9.57467C16.4412 9.57467 16.1839 9.31736 16.1839 8.99996C16.1795 5.03423 12.9657 1.82049 9.00001 1.81605C8.6826 1.81605 8.42529 1.55874 8.42529 1.24134C8.42529 0.923934 8.6826 0.666626 9.00001 0.666626C13.6003 0.671694 17.3283 4.39969 17.3333 8.99996C17.3333 9.15238 17.2728 9.29856 17.165 9.40634C17.0572 9.51412 16.911 9.57467 16.7586 9.57467Z" fill="white"/>
</svg>
